<?xml version="1.0" encoding="UTF-8" standalone="no"?>
<!-- Uploaded to: SVG Repo, www.svgrepo.com, Generator: SVG Repo Mixer Tools -->

<svg
   width="800"
   height="800"
   viewBox="0 0 32 32"
   version="1.1"
   id="svg15"
   xmlns="http://www.w3.org/2000/svg"
   xmlns:svg="http://www.w3.org/2000/svg"
   xmlns:rdf="http://www.w3.org/1999/02/22-rdf-syntax-ns#"
   xmlns:cc="http://creativecommons.org/ns#"
   xmlns:dc="http://purl.org/dc/elements/1.1/">
  <defs
     id="defs7" />
  <title
     id="title9">file_type_flash</title>
  <path
     id="rect11"
     style="fill:#000000;fill-opacity:1"
     d="M 2,2.3279688 V 29.672031 H 30 V 2.3279688 Z m 20.879609,4.7904687 a 7.439,7.439 0 0 1 0.226407,0.00359 V 10.648984 A 4.655,4.655 0 0 0 21.56,10.892031 h 0.001 a 3.613,3.613 0 0 0 -1.2,0.695 4.6,4.6 0 0 0 -0.938047,1.095 11.3,11.3 0 0 0 -0.8,1.528985 H 21.315 v 3.546015 H 17.232969 L 16.26,19.981016 a 13.442,13.442 0 0 1 -1.251016,2.015 A 7.487,7.487 0 0 1 8.8939844,24.88 v -3.561016 a 4.525,4.525 0 0 0 1.9460156,-0.4 4.02,4.02 0 0 0 1.39,-1.146953 9.844,9.844 0 0 0 1.06,-1.876015 23.24,23.24 0 0 0 1.025,-2.518985 l 1.147031,-2.8 a 11.422,11.422 0 0 1 1.528985,-2.571015 7.439,7.439 0 0 1 5.888593,-2.8875785 z" />
  <metadata
     id="metadata232">
    <rdf:RDF>
      <cc:Work
         rdf:about="">
        <dc:title>file_type_flash</dc:title>
      </cc:Work>
    </rdf:RDF>
  </metadata>
</svg>
