<?xml version="1.0" encoding="UTF-8" standalone="no"?>
<svg
   viewBox="0 0 512 512"
   fill="#ffffff"
   version="1.1"
   id="svg28"
   sodipodi:docname="steam.svg"
   inkscape:export-filename="steam.svg"
   inkscape:export-xdpi="756.18463"
   inkscape:export-ydpi="756.18463"
   width="512"
   height="512"
   xmlns:inkscape="http://www.inkscape.org/namespaces/inkscape"
   xmlns:sodipodi="http://sodipodi.sourceforge.net/DTD/sodipodi-0.dtd"
   xmlns="http://www.w3.org/2000/svg"
   xmlns:svg="http://www.w3.org/2000/svg">
  <sodipodi:namedview
     id="namedview30"
     pagecolor="#505050"
     bordercolor="#ffffff"
     borderopacity="1"
     inkscape:showpageshadow="0"
     inkscape:pageopacity="0"
     inkscape:pagecheckerboard="1"
     inkscape:deskcolor="#505050"
     showgrid="false" />
  <path
     d="m 255.72657,0.01477 c -135.65604,0 -246.6708972,105.53042 -255.43838312,238.97059 0.0452734,0.076 0.0798706,0.14303 0.12499279,0.21871 1.992e-5,-3.3e-4 0,-0.0624 0,-0.0624 L 137.95212,295.84146 a 65.116244,65.116244 0 0 1 11.98368,-6.40588 c 9.66343,-3.97577 19.83924,-5.76055 29.98265,-5.29658 l 62.63701,-90.99474 -0.0161,-1.26555 h -0.0784 c 0,-53.70885 43.61592,-97.385013 97.22878,-97.385013 53.71684,0.111993 97.22876,43.676163 97.22876,97.385013 0,53.70884 -43.59192,97.43187 -97.22876,97.43187 l -2.203,-0.0312 -89.54172,64.02756 a 71.115898,71.115898 0 0 1 -5.46844,29.24831 71.035903,71.035903 0 0 1 -92.82276,38.26342 c -22.09405,-9.19951 -37.13471,-28.34631 -41.93444,-50.16903 L 10.850077,330.6832 c 31.973704,104.90814 129.512433,181.30203 244.876493,181.30203 141.37571,0 255.98524,-114.60952 255.98524,-255.98522 0,-141.37571 -114.60953,-255.98524 -255.98524,-255.98524 z m 84.05765,127.0083 a 64.956253,64.956253 0 0 0 -64.79313,64.87126 64.956253,64.956253 0 0 0 64.79313,64.9025 64.956253,64.956253 0 0 0 64.79314,-64.9025 64.956253,64.956253 0 0 0 -64.79314,-64.87126 z m 0.0938,16.0147 c 26.83843,0 48.66907,21.84439 48.66907,48.76281 a 48.71719,48.71719 0 0 1 -48.66907,48.73157 48.71719,48.71719 0 0 1 -48.65345,-48.73157 h 0.0161 a 48.71719,48.71719 0 0 1 48.63777,-48.76281 z M 177.44984,300.35682 c -6.8436,-0.0568 -13.59348,1.17806 -19.9051,3.57792 l 32.79498,13.56171 a 40.39767,40.39767 0 0 1 21.73313,52.79383 40.317675,40.317675 0 0 1 -52.73134,21.76438 l -31.65443,-13.12424 a 54.716844,54.716844 0 0 0 28.18588,26.88907 c 27.89436,11.62331 59.98955,-1.54682 71.62087,-29.54517 h -0.0624 c 5.61568,-13.48721 5.6458,-28.42312 0.0784,-41.96634 -5.56768,-13.5432 -15.9616,-24.14023 -29.5608,-29.7639 -6.71161,-2.78784 -13.65522,-4.13026 -20.49881,-4.18726 z"
     fill="#000000"
     style="stroke-width:7.99954"
     id="path912" />
  <defs
     id="defs19" />
</svg>
