<?xml version="1.0" encoding="iso-8859-1"?>
<!-- Uploaded to: SVG Repo, www.svgrepo.com, Generator: SVG Repo Mixer Tools -->
<!DOCTYPE svg PUBLIC "-//W3C//DTD SVG 1.1//EN" "http://www.w3.org/Graphics/SVG/1.1/DTD/svg11.dtd">
<svg fill="#000000" version="1.1" id="Capa_1" xmlns="http://www.w3.org/2000/svg" xmlns:xlink="http://www.w3.org/1999/xlink" 
	 width="800px" height="800px" viewBox="0 0 577.948 577.949"
	 xml:space="preserve">
<g>
	<g>
		<path d="M403.926,173.572c-9.73,0-17.65,7.919-17.65,17.656c0,9.73,7.92,17.649,17.65,17.649c9.737,0,17.656-7.919,17.656-17.649
			C421.582,181.491,413.663,173.572,403.926,173.572z"/>
		<path d="M360.603,240.843l-29.492,11.86l-13.104,28.439l12.173,31.401l30.417,12.491l30.416-12.491l12.173-31.401l-13.104-28.439
			L360.603,240.843z M360.082,317.667c-19.198,0-34.822-15.625-34.822-34.817c0-19.191,15.624-34.816,34.822-34.816
			s34.817,15.625,34.817,34.816C394.899,302.042,379.28,317.667,360.082,317.667z"/>
		<path d="M458.816,214.594c-9.731,0-17.65,7.919-17.65,17.649c0,9.737,7.919,17.657,17.65,17.657
			c9.736,0,17.656-7.92,17.656-17.657C476.473,222.513,468.553,214.594,458.816,214.594z"/>
		<path d="M125.417,146.931l-24.04-0.392l-0.392,30.809H70.569l-0.392,24.039l30.808,0.392v30.416l24.04,0.392
			c0.214,0,0.392-0.177,0.392-0.392v-30.416h30.417l0.392-24.039l-30.808-0.392V146.931L125.417,146.931z"/>
		<circle cx="458.816" cy="150.206" r="17.656"/>
		<path d="M360.082,254.148c-15.826,0-28.702,12.876-28.702,28.696s12.876,28.697,28.702,28.697s28.697-12.877,28.697-28.697
			S375.908,254.148,360.082,254.148z"/>
		<path d="M438.577,88.173c0,0-43.972-0.459-69.865,2.307c-0.594,0.062-1.206,0.129-1.83,0.19c0-0.024,0-0.049,0-0.073
			c-0.196-2.896-7.179-4.78-15.606-4.217c-8.427,0.562-15.098,3.365-14.902,6.261c0,0.018,0.007,0.043,0.007,0.061
			c-23.581,1.12-47.412,1.579-47.412,1.579s-26.665-0.514-51.487-1.78c-0.024-2.847-6.622-5.569-14.909-6.12
			c-8.09-0.539-14.853,1.181-15.551,3.88c-26.102-2.516-67.663-2.081-67.663-2.081C62.393,88.179,0,150.573,0,227.538
			c0,76.966,62.393,135.564,139.358,135.564c0,0,42.595-2.308,75.043-4.725c22.436-1.671,49.474-2.516,64.04-2.876
			c-4.492,17.943-2.436,38.574,10.404,52.852c9.976,11.09,21.34,18.165,34.603,24.859c16.799,8.482,44.254,18.838,39.101,43.134
			c-3.262,15.398,20.33,21.946,23.604,6.506c4.597-21.683-3.678-38.984-20.098-53.263c-25.166-21.885-77.675-26.891-62.645-72.613
			c0.153-0.472,0.202-0.912,0.306-1.365c15.172,0.41,39.407,1.249,59.829,2.767c32.448,2.417,75.044,4.725,75.044,4.725
			c76.965,0,139.358-58.599,139.358-135.564C577.948,150.573,515.542,88.173,438.577,88.173z M317.873,122.831
			c0.973-0.257,2.228-0.122,3.114,0.331c0.533,0.269,1.292,0.991,1.592,1.518c0.973,1.695,0.416,3.99-1.212,5.036
			c-0.899,0.575-2.246,0.839-3.256,0.631c-2.008-0.404-3.428-2.405-3.103-4.37C315.253,124.471,316.397,123.216,317.873,122.831z
			 M322.499,134.14v10.992v10.991h-3.421h-3.421v-10.991V134.14h3.421H322.499z M329.127,176.521
			c7.999,0,14.505,6.506,14.505,14.511c0,7.999-6.506,14.505-14.505,14.505c-7.998,0-14.504-6.506-14.504-14.505
			S321.129,176.521,329.127,176.521z M131.537,207.899v24.296c0,3.593-2.919,6.512-6.512,6.512h-23.648
			c-3.592,0-6.512-2.925-6.512-6.512v-24.296H70.569c-3.592,0-6.511-2.926-6.511-6.512v-23.642c0-3.593,2.919-6.512,6.511-6.512
			h24.296v-24.297c0-3.592,2.919-6.512,6.512-6.512h23.648c3.592,0,6.512,2.926,6.512,6.512v24.297h24.296
			c3.592,0,6.512,2.925,6.512,6.512v23.642c0,3.592-2.919,6.512-6.512,6.512H131.537z M257.64,282.147l-13.122,33.831
			c-0.306,0.783-0.912,1.401-1.689,1.726l-32.797,13.465c-0.374,0.146-0.765,0.226-1.163,0.226c-0.397,0-0.79-0.079-1.163-0.226
			l-32.797-13.465c-0.777-0.324-1.389-0.942-1.689-1.726l-13.121-33.831c-0.3-0.771-0.27-1.634,0.073-2.387l14.149-30.729
			c0.325-0.71,0.912-1.268,1.64-1.561l31.763-12.773c0.735-0.3,1.549-0.3,2.283,0l31.756,12.773c0.729,0.293,1.31,0.851,1.64,1.561
			l14.156,30.729C257.915,280.519,257.939,281.375,257.64,282.147z M244.665,205.542c-7.999,0-14.51-6.506-14.51-14.504
			c0-8.006,6.505-14.511,14.51-14.511s14.504,6.505,14.504,14.511C259.169,199.031,252.664,205.542,244.665,205.542z
			 M266.813,156.234c-0.606,0.159-2.075,0.159-2.638,0.006c-1.463-0.404-2.889-1.757-3.513-3.342
			c-0.417-1.059-1.928-6.383-7.228-25.44l-0.795-2.858l3.586-0.019c1.971-0.012,3.611,0.007,3.642,0.043
			c0.031,0.037,1.371,5.227,2.98,11.543l2.925,11.48l1.389-5.324c3.305-12.638,3.862-14.676,4.278-15.551
			c0.563-1.182,1.542-2.025,2.711-2.325c0.612-0.159,2.032-0.159,2.638,0c1.285,0.336,2.289,1.261,2.84,2.619
			c0.336,0.826,1.065,3.5,3.77,13.886c0.912,3.501,1.683,6.427,1.72,6.5c0.037,0.086,1.169-4.205,2.999-11.371l2.938-11.512h3.642
			c2.876,0,3.635,0.019,3.604,0.098c-0.019,0.056-0.796,2.834-1.72,6.182c-4.437,15.979-5.979,21.34-6.413,22.289
			c-0.741,1.609-1.983,2.723-3.458,3.108c-0.618,0.159-1.958,0.159-2.564,0c-0.851-0.22-1.34-0.514-2.069-1.242
			c-0.569-0.569-0.752-0.82-1.065-1.45c-0.508-1.034-0.998-2.729-4.125-14.211c-0.734-2.699-1.359-4.963-1.383-5.03
			s-0.783,2.576-1.683,5.869c-1.983,7.239-3.029,10.979-3.354,12.001C269.77,154.385,268.497,155.799,266.813,156.234z
			 M286.349,205.542c-7.999,0-14.511-6.506-14.511-14.504c0-8.006,6.506-14.511,14.511-14.511s14.504,6.505,14.504,14.511
			C300.853,199.031,294.348,205.542,286.349,205.542z M308.729,145.132v10.991h-3.421h-3.421v-10.991V134.14h3.421h3.421V145.132z
			 M307.597,129.715c-0.899,0.575-2.245,0.839-3.256,0.631c-1.548-0.312-2.833-1.641-3.097-3.201
			c-0.317-1.903,0.949-3.812,2.858-4.314c0.973-0.257,2.228-0.122,3.115,0.331c0.532,0.269,1.347,1.046,1.615,1.548
			C309.776,126.429,309.219,128.675,307.597,129.715z M409.366,282.147l-13.121,33.831c-0.306,0.783-0.912,1.401-1.688,1.726
			l-32.798,13.465c-0.373,0.146-0.765,0.226-1.162,0.226c-0.398,0-0.79-0.079-1.163-0.226l-32.797-13.465
			c-0.777-0.324-1.39-0.942-1.689-1.726l-13.121-33.831c-0.3-0.771-0.27-1.634,0.073-2.387l14.149-30.729
			c0.324-0.71,0.912-1.268,1.641-1.561l31.763-12.773c0.734-0.3,1.548-0.3,2.282,0l31.757,12.773
			c0.729,0.293,1.31,0.851,1.641,1.561l14.155,30.729C409.642,280.519,409.667,281.375,409.366,282.147z M403.926,214.998
			c-13.108,0-23.77-10.661-23.77-23.77c0-13.109,10.667-23.776,23.77-23.776c13.109,0,23.776,10.667,23.776,23.776
			C427.702,204.336,417.035,214.998,403.926,214.998z M458.816,256.02c-13.109,0-23.771-10.667-23.771-23.776
			c0-13.108,10.667-23.77,23.771-23.77c13.108,0,23.776,10.661,23.776,23.77C482.593,245.353,471.925,256.02,458.816,256.02z
			 M458.816,173.975c-13.109,0-23.771-10.667-23.771-23.775c0-13.109,10.667-23.776,23.771-23.776
			c13.108,0,23.776,10.667,23.776,23.776C482.593,163.308,471.925,173.975,458.816,173.975z M514.049,214.998
			c-13.108,0-23.77-10.661-23.77-23.77c0-13.109,10.667-23.776,23.77-23.776c13.109,0,23.776,10.667,23.776,23.776
			C537.825,204.336,527.164,214.998,514.049,214.998z"/>
		<path d="M514.049,173.572c-9.73,0-17.649,7.919-17.649,17.656c0,9.73,7.919,17.649,17.649,17.649
			c9.737,0,17.656-7.919,17.656-17.649C531.705,181.491,523.786,173.572,514.049,173.572z"/>
		<path d="M208.875,240.843l-29.492,11.86l-13.103,28.439l12.173,31.401l30.416,12.491l30.417-12.491l12.173-31.401l-13.103-28.439
			L208.875,240.843z M208.355,317.667c-19.198,0-34.816-15.625-34.816-34.817c0-19.191,15.618-34.816,34.816-34.816
			c19.199,0,34.823,15.625,34.823,34.816C243.178,302.042,227.554,317.667,208.355,317.667z"/>
		<circle cx="329.127" cy="191.032" r="8.391"/>
		<path d="M208.355,254.148c-15.826,0-28.696,12.876-28.696,28.696s12.876,28.697,28.696,28.697
			c15.82,0,28.703-12.877,28.703-28.697S224.182,254.148,208.355,254.148z"/>
		<circle cx="244.665" cy="191.032" r="8.391"/>
		<circle cx="286.349" cy="191.032" r="8.391"/>
	</g>
</g>
</svg>